<mxfile host="Electron" agent="Mozilla/5.0 (Windows NT 10.0; Win64; x64) AppleWebKit/537.36 (KHTML, like Gecko) draw.io/26.0.15 Chrome/132.0.6834.196 Electron/34.2.0 Safari/537.36" version="26.0.15">
  <diagram name="Page-1" id="yWXa892mjVrpKRtvIbLN">
    <mxGraphModel dx="1764" dy="1242" grid="0" gridSize="10" guides="1" tooltips="1" connect="1" arrows="1" fold="1" page="1" pageScale="1" pageWidth="1700" pageHeight="1100" math="0" shadow="0">
      <root>
        <mxCell id="0" />
        <mxCell id="1" parent="0" />
        <mxCell id="lOypcsnCnZkWf9ElIBCr-1" value="" style="whiteSpace=wrap;html=1;aspect=fixed;fillColor=#dae8fc;strokeColor=#6c8ebf;" vertex="1" parent="1">
          <mxGeometry x="702" y="322" width="406" height="406" as="geometry" />
        </mxCell>
        <mxCell id="lOypcsnCnZkWf9ElIBCr-2" value="" style="endArrow=classic;html=1;rounded=0;" edge="1" parent="1">
          <mxGeometry width="50" height="50" relative="1" as="geometry">
            <mxPoint x="594" y="536" as="sourcePoint" />
            <mxPoint x="702" y="536" as="targetPoint" />
          </mxGeometry>
        </mxCell>
        <mxCell id="lOypcsnCnZkWf9ElIBCr-3" value="" style="endArrow=classic;html=1;rounded=0;" edge="1" parent="1">
          <mxGeometry width="50" height="50" relative="1" as="geometry">
            <mxPoint x="594" y="398" as="sourcePoint" />
            <mxPoint x="702" y="398" as="targetPoint" />
          </mxGeometry>
        </mxCell>
        <mxCell id="lOypcsnCnZkWf9ElIBCr-4" value="" style="endArrow=classic;html=1;rounded=0;" edge="1" parent="1">
          <mxGeometry width="50" height="50" relative="1" as="geometry">
            <mxPoint x="594" y="467" as="sourcePoint" />
            <mxPoint x="702" y="467" as="targetPoint" />
          </mxGeometry>
        </mxCell>
        <mxCell id="lOypcsnCnZkWf9ElIBCr-5" value="" style="endArrow=classic;html=1;rounded=0;" edge="1" parent="1">
          <mxGeometry width="50" height="50" relative="1" as="geometry">
            <mxPoint x="594" y="616" as="sourcePoint" />
            <mxPoint x="702" y="616" as="targetPoint" />
          </mxGeometry>
        </mxCell>
        <mxCell id="lOypcsnCnZkWf9ElIBCr-6" value="" style="endArrow=none;html=1;rounded=0;" edge="1" parent="1">
          <mxGeometry width="50" height="50" relative="1" as="geometry">
            <mxPoint x="623" y="409" as="sourcePoint" />
            <mxPoint x="653" y="391" as="targetPoint" />
          </mxGeometry>
        </mxCell>
        <mxCell id="lOypcsnCnZkWf9ElIBCr-7" value="" style="endArrow=none;html=1;rounded=0;" edge="1" parent="1">
          <mxGeometry width="50" height="50" relative="1" as="geometry">
            <mxPoint x="628" y="476" as="sourcePoint" />
            <mxPoint x="658" y="458" as="targetPoint" />
          </mxGeometry>
        </mxCell>
        <mxCell id="lOypcsnCnZkWf9ElIBCr-9" value="" style="endArrow=none;html=1;rounded=0;" edge="1" parent="1">
          <mxGeometry width="50" height="50" relative="1" as="geometry">
            <mxPoint x="1143" y="478" as="sourcePoint" />
            <mxPoint x="1173" y="460" as="targetPoint" />
          </mxGeometry>
        </mxCell>
        <mxCell id="lOypcsnCnZkWf9ElIBCr-10" value="" style="endArrow=classic;html=1;rounded=0;" edge="1" parent="1">
          <mxGeometry width="50" height="50" relative="1" as="geometry">
            <mxPoint x="1108" y="470" as="sourcePoint" />
            <mxPoint x="1216" y="470" as="targetPoint" />
          </mxGeometry>
        </mxCell>
        <mxCell id="lOypcsnCnZkWf9ElIBCr-11" value="&lt;font style=&quot;font-size: 22px;&quot;&gt;shift_amt&lt;/font&gt;" style="text;html=1;align=center;verticalAlign=middle;resizable=0;points=[];autosize=1;strokeColor=none;fillColor=none;" vertex="1" parent="1">
          <mxGeometry x="485" y="446" width="107" height="38" as="geometry" />
        </mxCell>
        <mxCell id="lOypcsnCnZkWf9ElIBCr-12" value="&lt;font style=&quot;font-size: 22px;&quot;&gt;data_in&lt;/font&gt;" style="text;html=1;align=center;verticalAlign=middle;resizable=0;points=[];autosize=1;strokeColor=none;fillColor=none;" vertex="1" parent="1">
          <mxGeometry x="502" y="377" width="90" height="38" as="geometry" />
        </mxCell>
        <mxCell id="lOypcsnCnZkWf9ElIBCr-13" value="&lt;font style=&quot;font-size: 22px;&quot;&gt;data_out&lt;/font&gt;" style="text;html=1;align=center;verticalAlign=middle;resizable=0;points=[];autosize=1;strokeColor=none;fillColor=none;" vertex="1" parent="1">
          <mxGeometry x="1218" y="450" width="104" height="38" as="geometry" />
        </mxCell>
        <mxCell id="lOypcsnCnZkWf9ElIBCr-14" value="&lt;font style=&quot;font-size: 22px;&quot;&gt;left_right&lt;/font&gt;" style="text;html=1;align=center;verticalAlign=middle;resizable=0;points=[];autosize=1;strokeColor=none;fillColor=none;" vertex="1" parent="1">
          <mxGeometry x="490" y="515" width="102" height="38" as="geometry" />
        </mxCell>
        <mxCell id="lOypcsnCnZkWf9ElIBCr-15" value="&lt;font style=&quot;font-size: 22px;&quot;&gt;shift_rotate&lt;/font&gt;" style="text;html=1;align=center;verticalAlign=middle;resizable=0;points=[];autosize=1;strokeColor=none;fillColor=none;" vertex="1" parent="1">
          <mxGeometry x="468" y="597" width="127" height="38" as="geometry" />
        </mxCell>
        <mxCell id="lOypcsnCnZkWf9ElIBCr-16" value="&lt;font style=&quot;font-size: 18px;&quot;&gt;32&lt;/font&gt;" style="text;html=1;align=center;verticalAlign=middle;resizable=0;points=[];autosize=1;strokeColor=none;fillColor=none;" vertex="1" parent="1">
          <mxGeometry x="628" y="365" width="38" height="34" as="geometry" />
        </mxCell>
        <mxCell id="lOypcsnCnZkWf9ElIBCr-17" value="&lt;font style=&quot;font-size: 18px;&quot;&gt;32&lt;/font&gt;" style="text;html=1;align=center;verticalAlign=middle;resizable=0;points=[];autosize=1;strokeColor=none;fillColor=none;" vertex="1" parent="1">
          <mxGeometry x="1141" y="435" width="38" height="34" as="geometry" />
        </mxCell>
        <mxCell id="lOypcsnCnZkWf9ElIBCr-18" value="&lt;font style=&quot;font-size: 18px;&quot;&gt;5&lt;/font&gt;" style="text;html=1;align=center;verticalAlign=middle;resizable=0;points=[];autosize=1;strokeColor=none;fillColor=none;" vertex="1" parent="1">
          <mxGeometry x="627" y="432" width="28" height="34" as="geometry" />
        </mxCell>
        <mxCell id="lOypcsnCnZkWf9ElIBCr-19" value="&lt;font style=&quot;font-size: 29px;&quot;&gt;&lt;b&gt;Barrel Shifter&lt;/b&gt;&lt;/font&gt;" style="text;html=1;align=center;verticalAlign=middle;resizable=0;points=[];autosize=1;strokeColor=none;fillColor=none;" vertex="1" parent="1">
          <mxGeometry x="804" y="488" width="202" height="47" as="geometry" />
        </mxCell>
      </root>
    </mxGraphModel>
  </diagram>
</mxfile>
